<svg width="234" height="187" viewBox="0 0 234 187" fill="none" xmlns="http://www.w3.org/2000/svg">
<path fill-rule="evenodd" clip-rule="evenodd" d="M131.051 28.5304C124.339 35.2593 113.447 35.2593 106.726 28.5304C100.013 21.8016 100.013 10.8828 106.726 4.14499C108.659 2.20707 110.941 0.825409 113.375 0C109.939 0.699803 106.663 2.38651 103.996 5.06012C96.7735 12.3004 96.7735 24.0356 103.996 31.2669C106.923 34.2006 110.583 35.9412 114.387 36.4974L114.217 41.2166C113.948 41.3781 113.76 41.6742 113.76 42.0151C113.76 42.3291 113.921 42.6073 114.154 42.7777L113.903 49.7488C113.447 50.018 113.134 50.5204 113.134 51.0946C113.134 51.624 113.402 52.0995 113.805 52.3776L113.787 52.8441L113.241 54.2437C112.445 56.2803 111.38 58.0927 109.956 59.6986C108.542 61.3046 106.815 62.7401 105.025 64.1486C101.427 66.9568 97.6685 69.7291 94.0617 72.6539C92.2539 74.1164 90.4729 75.6057 88.7008 77.1129C86.8572 78.683 85.1657 80.5043 83.868 82.6396C83.5458 83.1779 83.2236 83.7162 82.973 84.2904C82.6777 84.8467 82.4718 85.4478 82.2481 86.0399C81.8632 87.2421 81.55 88.4892 81.4784 89.7543C81.2547 92.2933 81.7558 94.8234 82.6329 97.1201L83.8053 95.4334L78.1312 95.5052L76.9409 95.5232L76.9588 96.6895L77.0035 100.341L78.1401 99.2106L71.1862 99.3003L70.1301 99.3182L70.148 100.35L70.3449 111.619C70.3986 115.378 70.4971 119.128 70.5866 122.887L70.8551 134.156C70.9356 137.915 71.0699 141.665 71.1862 145.425C71.3025 141.665 71.4457 137.915 71.5173 134.156L71.7858 122.887C71.8753 119.128 71.9738 115.378 72.0275 111.619L72.2244 100.35L71.1862 101.391L78.1401 101.48L79.2589 101.498L79.2768 100.35L79.3215 96.6985L78.1401 97.8828L83.8143 97.9545L85.5863 97.9725L84.9867 96.2589C84.2707 94.2222 83.9306 92.0869 84.1365 89.9965C84.2081 88.9558 84.4945 87.933 84.8167 86.9461C85.0135 86.4616 85.1836 85.9682 85.4431 85.5016C85.6579 85.0261 85.9443 84.5685 86.2218 84.1199C87.3584 82.3166 88.8709 80.7196 90.5624 79.32C92.3344 77.8666 94.1244 76.4131 95.9322 74.9956C99.53 72.1246 103.226 69.4241 106.923 66.571C108.757 65.1355 110.628 63.6283 112.283 61.7621C113.948 59.9139 115.264 57.6889 116.15 55.4101L113.277 55.446C114.226 57.7069 115.622 59.878 117.295 61.6814C118.96 63.4937 120.804 65.001 122.62 66.4634C126.281 69.3523 129.932 72.1156 133.521 74.9956C135.32 76.4221 137.11 77.8755 138.873 79.338C140.565 80.7376 142.077 82.3345 143.205 84.1289L143.625 84.8108C143.76 85.0351 143.867 85.2773 143.992 85.5106C144.252 85.9771 144.422 86.4706 144.619 86.955C144.941 87.942 145.227 88.9558 145.299 90.0055C145.505 92.0869 145.165 94.2222 144.449 96.2589L143.849 97.9635L145.612 97.9455L150.445 97.8828L149.264 96.6985L149.309 100.35L149.326 101.507L150.454 101.489L158.249 101.382L157.211 100.341L157.408 111.61C157.462 115.369 157.569 119.119 157.65 122.878L157.918 134.147C157.99 137.906 158.133 141.656 158.249 145.416C158.366 141.656 158.5 137.906 158.58 134.147L158.849 122.878C158.938 119.119 159.037 115.369 159.091 111.61L159.287 100.341L159.305 99.3182L158.249 99.3003L150.454 99.1926L151.591 100.332L151.635 96.6805L151.653 95.5052L150.454 95.4873L145.621 95.4245L146.785 97.1022C147.653 94.8054 148.154 92.2843 147.939 89.7543C147.868 88.4892 147.554 87.2421 147.17 86.0399C146.946 85.4478 146.74 84.8467 146.445 84.2904C146.301 84.0123 146.176 83.7162 146.024 83.4471L145.55 82.6396C144.243 80.5043 142.56 78.692 140.726 77.1219C138.954 75.6146 137.182 74.1253 135.383 72.6629C131.803 69.7291 128.098 66.9209 124.527 64.0679C122.755 62.6324 121.018 61.1879 119.569 59.582C118.11 57.985 116.982 56.2086 116.15 54.2078L115.622 52.9428L115.604 52.3776C116.015 52.0995 116.275 51.624 116.275 51.0946C116.275 50.5204 115.962 50.018 115.505 49.7488L115.255 42.7687C115.496 42.5983 115.649 42.3202 115.649 42.0061C115.649 41.6652 115.47 41.3691 115.201 41.2076L115.031 36.5692C120.428 37.1793 126.039 35.4118 130.183 31.2579C132.85 28.5843 134.532 25.3006 135.222 21.8554C134.407 24.2868 133.029 26.5746 131.087 28.5215H131.051V28.5304Z" fill="#755419"/>
<path fill-rule="evenodd" clip-rule="evenodd" d="M120.267 21.981L125.341 20.9761L124.813 20.2045C124.58 19.9174 124.741 19.7649 125.09 19.406L126.746 17.7014L124.509 17.0195C124.267 16.885 124.213 16.6876 124.276 16.5709L124.482 15.4943L121.895 16.4453C121.484 16.6068 121.063 16.3736 121.546 15.7724L124.294 12.3721L123.113 12.3542C122.808 12.3452 122.576 11.8966 122.576 11.8966L122.638 8.75647L120.025 10.488C119.73 10.7303 119.524 10.5329 119.291 10.2368L118.647 9.24992L117.295 13.4218C117.054 14.1575 116.561 13.8884 116.552 13.4846L115.917 10.7482L115.174 11.5288C115.111 11.6454 114.852 11.6723 114.673 11.5736L112.901 10.0305L112.346 12.3452C112.23 12.8387 112.194 13.054 111.818 13.0091L110.887 12.9732L112.74 17.8091C112.794 17.9975 112.811 18.2487 112.65 18.4012L111.773 19.2715C112.99 19.7918 114.154 20.2763 115.434 20.8236C115.496 20.8595 115.64 21.021 115.577 21.1376L114.512 22.7795L115.058 23.0845L115.935 21.344C115.998 21.2273 116.159 21.2273 116.275 21.2991C117.421 22.0976 118.387 22.7884 119.533 23.5779L119.801 22.3757C119.837 22.1604 119.998 22.0079 120.249 21.9899H120.267V21.981Z" fill="#EC262A"/>
<path fill-rule="evenodd" clip-rule="evenodd" d="M119.157 16.0864L116.633 20.671L115.326 19.9443L116.508 17.8C116.731 17.3963 116.857 17.1451 116.883 17.0464C116.91 16.9567 116.883 16.858 116.83 16.7683C116.767 16.6786 116.579 16.544 116.284 16.3825L116.15 16.3107L116.49 15.7006C117.197 15.9159 117.832 15.898 118.396 15.6558L119.166 16.0774H119.157V16.0864Z" fill="#EC262A"/>
<path fill-rule="evenodd" clip-rule="evenodd" d="M119.711 16.8042L119.479 16.6786L119.515 16.6068C119.515 16.6068 119.541 16.553 119.541 16.535C119.541 16.5261 119.541 16.5171 119.523 16.5081C119.506 16.5081 119.497 16.4991 119.479 16.5081C119.461 16.5081 119.452 16.535 119.434 16.5619C119.416 16.5978 119.407 16.6248 119.407 16.6427C119.407 16.6606 119.407 16.6965 119.443 16.7414C119.515 16.867 119.559 16.9657 119.559 17.0195C119.559 17.0733 119.541 17.1541 119.488 17.2528C119.452 17.3246 119.416 17.3694 119.38 17.3874C119.345 17.4143 119.3 17.4232 119.237 17.4143C119.183 17.4143 119.121 17.3963 119.058 17.3604C118.995 17.3246 118.942 17.2797 118.906 17.2259C118.87 17.172 118.861 17.1272 118.87 17.0733C118.87 17.0285 118.897 16.9657 118.942 16.8939L118.978 16.8311L119.21 16.9567L119.148 17.0733C119.148 17.0733 119.121 17.1361 119.121 17.1451C119.121 17.1541 119.121 17.172 119.148 17.181H119.192C119.192 17.181 119.219 17.1541 119.237 17.1272C119.273 17.0733 119.282 17.0285 119.273 17.0016C119.273 16.9747 119.246 16.9298 119.201 16.849C119.166 16.7773 119.139 16.7234 119.13 16.6965C119.13 16.6696 119.13 16.6337 119.13 16.5889C119.13 16.553 119.148 16.4991 119.183 16.4453C119.219 16.3735 119.264 16.3197 119.3 16.3018C119.336 16.2748 119.38 16.2659 119.434 16.2748C119.488 16.2748 119.541 16.2928 119.604 16.3287C119.667 16.3646 119.711 16.4094 119.747 16.4543C119.783 16.4991 119.801 16.544 119.792 16.5889C119.792 16.6248 119.765 16.6876 119.72 16.7683L119.702 16.8042H119.711ZM120.499 16.858L119.953 16.553L119.846 16.7504L119.998 16.8311L119.568 17.6027L119.819 17.7373L120.248 16.9657L120.392 17.0464L120.499 16.849V16.858Z" fill="#EC262A"/>
<path fill-rule="evenodd" clip-rule="evenodd" d="M114.682 138.193C134.819 138.193 152.683 142.957 163.798 150.305C163.315 150.153 162.832 150.009 162.34 149.866C150.633 144.868 133.62 141.719 114.682 141.719C95.7445 141.719 78.731 144.868 67.0247 149.866C66.5325 150.009 66.0492 150.162 65.5659 150.305C76.6815 142.957 94.5452 138.193 114.682 138.193ZM102.949 131.437C96.1203 131.437 90.3478 134.658 88.4683 139.072H87.9582V134.91H82.7405V139.072H81.8366V142.311C83.8502 141.692 85.8997 141.136 87.9671 140.652C96.9527 138.543 106.323 137.673 114.673 137.673C115.335 137.673 116.007 137.673 116.678 137.691C114.288 134.003 109.035 131.437 102.931 131.437H102.949ZM91.4396 138.391C92.3346 137.054 93.5965 135.941 94.9569 135.098C97.7939 133.331 101.257 132.541 104.578 132.541C107.021 132.541 109.509 132.963 111.782 133.887C111.693 133.842 111.594 133.797 111.505 133.752C109.017 132.595 106.234 132.065 103.504 132.065C100.184 132.065 96.72 132.864 93.8829 134.622C92.2541 135.636 90.7684 137.027 89.8734 138.741C90.3836 138.624 90.9026 138.507 91.4307 138.4H91.4396V138.391ZM129.628 127.938V138.57C131.347 138.776 133.083 139.028 134.81 139.324V127.938H129.628ZM133.835 128.8V129.724H132.913V128.8H133.835ZM132.447 128.8V129.724H131.526V128.8H132.447ZM132.913 130.19H133.835V131.114H132.913V130.19ZM131.194 130.836V131.769H130.273V130.836H131.194ZM131.526 132.846H132.447V133.779H131.526V132.846ZM138.041 132.263V139.916C141.254 140.553 144.44 141.342 147.537 142.302V132.263H138.041ZM138.909 133.124H139.831V134.048H138.909V133.124ZM140.296 133.124H141.218V134.048H140.296V133.124ZM139.831 134.515V135.439H138.909V134.515H139.831ZM141.549 135.161H142.471V136.094H141.549V135.161ZM141.218 137.17V138.095H140.296V137.17H141.218ZM146.803 134.721V135.717H145.809V134.721H146.803ZM145.809 134.219V133.223H146.803V134.219H145.809ZM132 108.766V127.409H135.338V139.404C136.063 139.53 136.797 139.665 137.522 139.808V131.742H140.699V112.955L132 108.775V108.766ZM136.439 120.994V121.918H135.508V120.994H136.439ZM135.052 120.994V121.918H134.13V120.994H135.052ZM135.517 122.385H136.448V123.318H135.517V122.385ZM133.799 123.031V123.964H132.877V123.031H133.799ZM134.13 125.041H135.052V125.974H134.13V125.041ZM133.074 111.646H134.067V112.641H133.074V111.646ZM134.067 113.126V114.122H133.074V113.126H134.067ZM137.298 114.804V113.871H138.22V114.804H137.298ZM138.685 113.871H139.607V114.804H138.685V113.871ZM139.607 115.261V116.194H138.685V115.261H139.607ZM138.22 116.194H137.298V115.261H138.22V116.194ZM139.607 117.1V118.025H138.685V117.1H139.607ZM138.22 119.254H137.298V118.321H138.22V119.254ZM139.607 119.927V120.86H138.685V119.927H139.607ZM138.748 121.595V122.528H137.826V121.595H138.748ZM135.902 118.034V117.1H136.833V118.034H135.902ZM124.751 118.473L122.513 120.788V133.86H121.332C121.019 123.381 120.696 112.955 120.32 102.423V102.073C121.233 101.893 121.869 101.507 121.869 101.059C121.869 100.852 121.735 100.655 121.493 100.485C121.815 100.135 122.012 99.7041 122.012 99.2375C122.012 98.5198 121.564 97.8918 120.866 97.488C120.911 97.4073 120.938 97.3265 120.938 97.2368C120.938 96.9228 120.616 96.6536 120.115 96.4922L119.819 88.1214C120.338 87.933 120.696 87.5293 120.696 87.0627C120.696 86.65 120.419 86.2912 119.998 86.0848C120.061 86.022 120.097 85.9592 120.097 85.8874C120.097 85.7439 119.954 85.6093 119.73 85.5286L119.264 72.2861H119.059L118.593 85.5286C118.369 85.6093 118.226 85.7439 118.226 85.8874C118.226 85.9592 118.262 86.031 118.325 86.0848C117.904 86.2912 117.627 86.659 117.627 87.0627C117.627 87.5293 117.985 87.933 118.504 88.1214L118.208 96.4563C117.653 96.6088 117.278 96.9049 117.278 97.2368C117.278 97.3445 117.313 97.4432 117.385 97.5329C116.732 97.9276 116.32 98.5467 116.32 99.2286C116.32 99.6951 116.508 100.126 116.839 100.476C116.597 100.646 116.463 100.835 116.463 101.05C116.463 101.498 117.099 101.884 118.02 102.064V102.414C117.698 112.04 117.421 121.595 117.143 131.177H114.432V124.143H112.364V122.071H108.918V124.143H106.851V131.231C107.773 131.402 108.686 131.635 109.581 131.931L109.634 131.949H109.67L109.688 131.967L109.742 131.985H109.769L109.849 132.021L109.948 132.057H109.957L110.037 132.083H110.073L110.127 132.11H110.145L110.234 132.146L110.333 132.182H110.35L110.404 132.2H110.431L110.458 132.218L110.512 132.236H110.52L110.565 132.254L110.619 132.272C110.673 132.29 110.726 132.317 110.78 132.335H110.798L110.834 132.362L110.887 132.388L110.932 132.415L110.977 132.433L111.031 132.46L111.066 132.478H111.084L111.138 132.514H111.156L111.245 132.559L111.299 132.586L111.344 132.604H111.353C111.407 132.631 111.46 132.658 111.514 132.685H111.532L111.568 132.711L111.621 132.738L111.675 132.765L111.711 132.783H111.729L111.782 132.819H111.809V132.837L111.89 132.873H111.899L111.943 132.9L111.997 132.927C112.06 132.963 112.114 132.99 112.176 133.025L112.257 133.07L112.301 133.097L112.346 133.124L112.4 133.16L112.427 133.178H112.445C112.498 133.214 112.552 133.25 112.606 133.277C112.668 133.313 112.722 133.348 112.785 133.375L112.874 133.429L112.91 133.447L112.964 133.474H112.991V133.492H113.009V133.51H113.026C113.384 133.734 113.733 133.968 114.065 134.219H114.074V134.237L114.145 134.282L114.181 134.317H114.199V134.335L114.261 134.38H114.27V134.398H114.297V134.416L114.315 134.434C114.432 134.524 114.539 134.613 114.646 134.703C114.718 134.766 114.79 134.82 114.861 134.883L114.897 134.91L114.96 134.963L115.031 135.026L115.112 135.107L115.255 135.233L115.273 135.25L115.335 135.313L115.416 135.394L115.479 135.466L115.514 135.502L115.55 135.538L115.604 135.6L115.622 135.618L115.693 135.69L115.756 135.762L115.819 135.834L115.872 135.896L115.89 135.914L115.962 135.995L115.98 136.022L116.042 136.094L116.087 136.157L116.132 136.21L116.195 136.291L116.213 136.318L116.284 136.399L116.302 136.426L116.347 136.48L116.365 136.498L116.409 136.56L116.472 136.641L116.535 136.731L116.579 136.803V136.821L116.624 136.865V136.883L116.678 136.946L116.705 136.973L116.767 137.072V137.09V137.108V137.126V137.144V137.17V137.188V137.206L116.812 137.278V137.296L116.83 137.323V137.341V137.359V137.377V137.395L116.875 137.467V137.484V137.502L116.92 137.574V137.592V137.61L116.937 137.646H120.732L120.983 137.664C121.448 137.691 121.914 137.718 122.379 137.745H122.486L122.692 137.763H123.417C125.144 137.888 126.899 138.059 128.662 138.265V127.176H130.237V118.249H124.276L124.733 118.473H124.751ZM107.845 125.328H108.766V126.252H107.845V125.328ZM109.232 125.328H110.154V126.252H109.232V125.328ZM108.766 126.718V127.642H107.845V126.718H108.766ZM110.485 127.364H111.407V128.297H110.485V127.364ZM110.154 129.374V130.307H109.232V129.374H110.154ZM124.572 125.731V124.798H125.493V125.731H124.572ZM125.959 124.798H126.881V125.731H125.959V124.798ZM126.881 126.189V127.122H125.959V126.189H126.881ZM125.493 127.122H124.572V126.189H125.493V127.122ZM126.881 128.028V128.952H125.959V128.028H126.881ZM125.493 130.181H124.572V129.248H125.493V130.181ZM126.881 130.854V131.787H125.959V130.854H126.881ZM123.175 128.961V128.037H124.097V128.961H123.175ZM129.655 119.487V120.42H128.724V119.487H129.655ZM128.268 119.487V120.42H127.346V119.487H128.268ZM128.733 120.878H129.664V121.802H128.733V120.878ZM127.015 121.524V122.457H126.084V121.524H127.015ZM127.346 123.533H128.268V124.466H127.346V123.533Z" fill="#00B900"/>
<mask id="mask0_28_839" style="mask-type:luminance" maskUnits="userSpaceOnUse" x="65" y="72" width="99" height="79">
<path d="M114.682 138.193C134.819 138.193 152.683 142.957 163.798 150.305C163.315 150.153 162.832 150.009 162.34 149.866C150.633 144.868 133.62 141.719 114.682 141.719C95.7445 141.719 78.731 144.868 67.0247 149.866C66.5325 150.009 66.0492 150.162 65.5659 150.305C76.6815 142.957 94.5452 138.193 114.682 138.193ZM102.949 131.437C96.1203 131.437 90.3478 134.658 88.4683 139.072H87.9582V134.91H82.7405V139.072H81.8366V142.311C83.8502 141.692 85.8997 141.136 87.9671 140.652C96.9527 138.543 106.323 137.673 114.673 137.673C115.335 137.673 116.007 137.673 116.678 137.691C114.288 134.003 109.035 131.437 102.931 131.437H102.949ZM91.4396 138.391C92.3346 137.054 93.5965 135.941 94.9569 135.098C97.7939 133.331 101.257 132.541 104.578 132.541C107.021 132.541 109.509 132.963 111.782 133.887C111.693 133.842 111.594 133.797 111.505 133.752C109.017 132.595 106.234 132.065 103.504 132.065C100.184 132.065 96.72 132.864 93.8829 134.622C92.2541 135.636 90.7684 137.027 89.8734 138.741C90.3836 138.624 90.9026 138.507 91.4307 138.4H91.4396V138.391ZM129.628 127.938V138.57C131.347 138.776 133.083 139.028 134.81 139.324V127.938H129.628ZM133.835 128.8V129.724H132.913V128.8H133.835ZM132.447 128.8V129.724H131.526V128.8H132.447ZM132.913 130.19H133.835V131.114H132.913V130.19ZM131.194 130.836V131.769H130.273V130.836H131.194ZM131.526 132.846H132.447V133.779H131.526V132.846ZM138.041 132.263V139.916C141.254 140.553 144.44 141.342 147.537 142.302V132.263H138.041ZM138.909 133.124H139.831V134.048H138.909V133.124ZM140.296 133.124H141.218V134.048H140.296V133.124ZM139.831 134.515V135.439H138.909V134.515H139.831ZM141.549 135.161H142.471V136.094H141.549V135.161ZM141.218 137.17V138.095H140.296V137.17H141.218ZM146.803 134.721V135.717H145.809V134.721H146.803ZM145.809 134.219V133.223H146.803V134.219H145.809ZM132 108.766V127.409H135.338V139.404C136.063 139.53 136.797 139.665 137.522 139.808V131.742H140.699V112.955L132 108.775V108.766ZM136.439 120.994V121.918H135.508V120.994H136.439ZM135.052 120.994V121.918H134.13V120.994H135.052ZM135.517 122.385H136.448V123.318H135.517V122.385ZM133.799 123.031V123.964H132.877V123.031H133.799ZM134.13 125.041H135.052V125.974H134.13V125.041ZM133.074 111.646H134.067V112.641H133.074V111.646ZM134.067 113.126V114.122H133.074V113.126H134.067ZM137.298 114.804V113.871H138.22V114.804H137.298ZM138.685 113.871H139.607V114.804H138.685V113.871ZM139.607 115.261V116.194H138.685V115.261H139.607ZM138.22 116.194H137.298V115.261H138.22V116.194ZM139.607 117.1V118.025H138.685V117.1H139.607ZM138.22 119.254H137.298V118.321H138.22V119.254ZM139.607 119.927V120.86H138.685V119.927H139.607ZM138.748 121.595V122.528H137.826V121.595H138.748ZM135.902 118.034V117.1H136.833V118.034H135.902ZM124.751 118.473L122.513 120.788V133.86H121.332C121.019 123.381 120.696 112.955 120.32 102.423V102.073C121.233 101.893 121.869 101.507 121.869 101.059C121.869 100.852 121.735 100.655 121.493 100.485C121.815 100.135 122.012 99.7041 122.012 99.2375C122.012 98.5198 121.564 97.8918 120.866 97.488C120.911 97.4073 120.938 97.3265 120.938 97.2368C120.938 96.9228 120.616 96.6536 120.115 96.4922L119.819 88.1214C120.338 87.933 120.696 87.5293 120.696 87.0627C120.696 86.65 120.419 86.2912 119.998 86.0848C120.061 86.022 120.097 85.9592 120.097 85.8874C120.097 85.7439 119.954 85.6093 119.73 85.5286L119.264 72.2861H119.059L118.593 85.5286C118.369 85.6093 118.226 85.7439 118.226 85.8874C118.226 85.9592 118.262 86.031 118.325 86.0848C117.904 86.2912 117.627 86.659 117.627 87.0627C117.627 87.5293 117.985 87.933 118.504 88.1214L118.208 96.4563C117.653 96.6088 117.278 96.9049 117.278 97.2368C117.278 97.3445 117.313 97.4432 117.385 97.5329C116.732 97.9276 116.32 98.5467 116.32 99.2286C116.32 99.6951 116.508 100.126 116.839 100.476C116.597 100.646 116.463 100.835 116.463 101.05C116.463 101.498 117.099 101.884 118.02 102.064V102.414C117.698 112.04 117.421 121.595 117.143 131.177H114.432V124.143H112.364V122.071H108.918V124.143H106.851V131.231C107.773 131.402 108.686 131.635 109.581 131.931L109.634 131.949H109.67L109.688 131.967L109.742 131.985H109.769L109.849 132.021L109.948 132.057H109.957L110.037 132.083H110.073L110.127 132.11H110.145L110.234 132.146L110.333 132.182H110.35L110.404 132.2H110.431L110.458 132.218L110.512 132.236H110.52L110.565 132.254L110.619 132.272C110.673 132.29 110.726 132.317 110.78 132.335H110.798L110.834 132.362L110.887 132.388L110.932 132.415L110.977 132.433L111.031 132.46L111.066 132.478H111.084L111.138 132.514H111.156L111.245 132.559L111.299 132.586L111.344 132.604H111.353C111.407 132.631 111.46 132.658 111.514 132.685H111.532L111.568 132.711L111.621 132.738L111.675 132.765L111.711 132.783H111.729L111.782 132.819H111.809V132.837L111.89 132.873H111.899L111.943 132.9L111.997 132.927C112.06 132.963 112.114 132.99 112.176 133.025L112.257 133.07L112.301 133.097L112.346 133.124L112.4 133.16L112.427 133.178H112.445C112.498 133.214 112.552 133.25 112.606 133.277C112.668 133.313 112.722 133.348 112.785 133.375L112.874 133.429L112.91 133.447L112.964 133.474H112.991V133.492H113.009V133.51H113.026C113.384 133.734 113.733 133.968 114.065 134.219H114.074V134.237L114.145 134.282L114.181 134.317H114.199V134.335L114.261 134.38H114.27V134.398H114.297V134.416L114.315 134.434C114.432 134.524 114.539 134.613 114.646 134.703C114.718 134.766 114.79 134.82 114.861 134.883L114.897 134.91L114.96 134.963L115.031 135.026L115.112 135.107L115.255 135.233L115.273 135.25L115.335 135.313L115.416 135.394L115.479 135.466L115.514 135.502L115.55 135.538L115.604 135.6L115.622 135.618L115.693 135.69L115.756 135.762L115.819 135.834L115.872 135.896L115.89 135.914L115.962 135.995L115.98 136.022L116.042 136.094L116.087 136.157L116.132 136.21L116.195 136.291L116.213 136.318L116.284 136.399L116.302 136.426L116.347 136.48L116.365 136.498L116.409 136.56L116.472 136.641L116.535 136.731L116.579 136.803V136.821L116.624 136.865V136.883L116.678 136.946L116.705 136.973L116.767 137.072V137.09V137.108V137.126V137.144V137.17V137.188V137.206L116.812 137.278V137.296L116.83 137.323V137.341V137.359V137.377V137.395L116.875 137.467V137.484V137.502L116.92 137.574V137.592V137.61L116.937 137.646H120.732L120.983 137.664C121.448 137.691 121.914 137.718 122.379 137.745H122.486L122.692 137.763H123.417C125.144 137.888 126.899 138.059 128.662 138.265V127.176H130.237V118.249H124.276L124.733 118.473H124.751ZM107.845 125.328H108.766V126.252H107.845V125.328ZM109.232 125.328H110.154V126.252H109.232V125.328ZM108.766 126.718V127.642H107.845V126.718H108.766ZM110.485 127.364H111.407V128.297H110.485V127.364ZM110.154 129.374V130.307H109.232V129.374H110.154ZM124.572 125.731V124.798H125.493V125.731H124.572ZM125.959 124.798H126.881V125.731H125.959V124.798ZM126.881 126.189V127.122H125.959V126.189H126.881ZM125.493 127.122H124.572V126.189H125.493V127.122ZM126.881 128.028V128.952H125.959V128.028H126.881ZM125.493 130.181H124.572V129.248H125.493V130.181ZM126.881 130.854V131.787H125.959V130.854H126.881ZM123.175 128.961V128.037H124.097V128.961H123.175ZM129.655 119.487V120.42H128.724V119.487H129.655ZM128.268 119.487V120.42H127.346V119.487H128.268ZM128.733 120.878H129.664V121.802H128.733V120.878ZM127.015 121.524V122.457H126.084V121.524H127.015ZM127.346 123.533H128.268V124.466H127.346V123.533Z" fill="white"/>
</mask>
<g mask="url(#mask0_28_839)">
<path opacity="0.33" fill-rule="evenodd" clip-rule="evenodd" d="M91.6545 101.812C122.997 114.319 141.478 115.548 169.267 131.204C109.187 143.505 161.695 128.324 91.6545 101.812Z" fill="#755419"/>
</g>
<path fill-rule="evenodd" clip-rule="evenodd" d="M125.824 185.95C126.406 185.556 127.265 184.578 127.713 183.932C127.731 183.914 127.749 183.878 127.758 183.86C127.775 183.842 127.793 183.806 127.802 183.788C127.937 183.591 127.82 183.734 127.954 183.582C127.847 184.91 125.95 186.534 124.401 186.668C125.117 185.6 124.929 186.372 125.816 184.533C126.191 183.752 126.657 182.963 127.713 182.873C127.596 184.228 125.968 185.394 125.816 185.959L125.824 185.95ZM104.998 183.689L105.401 184.228C105.786 184.739 106.368 185.565 106.887 185.699C106.314 184.847 105.374 183.986 105.115 182.855C106.806 182.999 106.851 184.434 107.665 185.636C107.979 186.094 108.265 186.237 108.542 186.65C107.146 186.623 105.097 184.946 104.989 183.68H104.998V183.689ZM90.1955 180.146H89.3632C89.7122 179.841 89.9807 179.823 90.4282 179.311C90.7773 178.907 90.9742 178.719 91.7349 178.719C91.5201 179.033 91.3053 179.248 90.9562 179.482C90.7504 179.616 90.5804 179.688 90.4372 179.796L90.1955 180.146ZM140.26 178.253C139.92 178.172 140.081 178.27 139.902 178.019C140.242 178.1 140.081 178.001 140.26 178.253ZM140.609 178.611C140.896 178.818 140.994 179.042 141.084 179.446C139.688 178.513 139.428 179.024 138.837 177.903C139.392 177.947 140.135 178.369 140.377 178.737L140.609 178.62V178.611ZM101.785 177.651C101.445 177.571 101.606 177.669 101.427 177.418C101.776 177.499 101.597 177.4 101.785 177.651ZM120.249 178.952C119.64 178.118 117.483 177.66 117.054 177.293C118.808 177.293 120.213 178.262 121.224 179.401C121.591 179.805 121.77 180.253 122.021 180.738C121.144 180.504 121.636 180.083 118.888 179.607C118.262 179.5 117.725 179.338 117.304 179.06C116.696 178.674 116.669 178.387 116.338 177.768C118.101 177.804 119.434 178.764 120.24 178.952H120.249ZM129.718 178.244C130.541 178.172 130.899 177.696 131.615 177.535C131.346 177.939 130.675 178.235 130.12 178.414C129.02 178.764 128.93 178.504 127.946 178.486C128.312 178.235 128.67 178.253 129.485 177.66C129.968 177.31 130.192 176.889 130.863 176.665C131.087 176.584 131.651 176.467 131.758 176.736C131.821 176.889 131.454 177.185 131.275 177.328L129.718 178.253V178.244ZM101.785 177.642C102.609 178.881 104.846 178.486 105.338 178.477L104.855 178.253C103.146 177.598 103.217 176.772 102.108 176.593C100.577 176.35 101.812 177.23 102.188 177.481C102.949 177.983 103.549 178.136 103.799 178.36C102.931 178.288 102.466 177.804 101.785 177.651V177.642ZM112.677 174.197C113.178 174.888 114.852 175.408 115.747 175.749L115.989 175.857C113.662 175.857 111.389 174 111.022 172.421C113.474 174.063 114.557 173.336 115.711 174.125C116.248 174.493 116.418 174.834 116.705 175.382C114.601 175.382 113.653 174.422 112.677 174.197ZM100.846 179.652C100.55 179.455 100.371 179.239 100.103 178.97C99.7896 178.656 99.727 178.504 99.4496 178.199C97.7402 176.27 96.702 174.951 93.856 175.615C94.2945 174.951 94.4198 174.081 94.0976 173.237C93.8023 172.466 93.2742 172.044 92.5583 171.694C91.0815 170.967 89.1842 170.985 86.9915 170.985H62.0217C57.8332 170.985 53.8685 171.102 49.5995 171.102C41.1867 171.102 33.1588 171.219 24.746 171.219C22.6339 171.219 20.7903 171.335 18.5886 171.335H12.3148C11.1603 171.335 10.4891 171.461 9.35248 171.452L0 171.685C4.38537 171.685 8.38591 171.802 12.7802 171.802C13.9527 171.802 14.8208 171.927 15.8589 171.918H25.6858C27.9053 171.918 29.7221 172.035 31.9595 172.035L80.485 172.152C81.6933 172.152 82.454 172.268 83.6801 172.268C85.6759 172.268 88.2534 172.125 90.1866 172.268C91.001 172.331 92.1466 172.591 92.6478 173.004C94.554 174.565 91.6364 177.104 90.7862 175.22C90.3745 174.314 91.2516 173.354 92.2003 173.811C91.9855 173.291 91.2158 173.444 90.8757 173.668C89.1484 174.798 90.9562 177.248 92.433 176.539C92.2987 177.041 91.8423 177.266 91.8423 178.441C89.8733 178.441 90.7146 179.553 88.8799 179.984V180.217C89.757 180.217 89.7301 180.415 90.6072 180.173C91.2068 180.002 91.4485 179.643 91.9586 179.509C92.1376 181.68 96.335 183.008 96.335 179.625H96.2187C96.2187 182.398 92.8267 181.689 92.2629 179.553C91.3411 176.072 95.6638 174.448 98.0444 177.553C99.5838 179.553 101.947 182.532 104.497 182.586C104.497 183.582 104.479 183.833 104.855 184.479C105.714 185.977 107.334 186.812 109.232 186.973C109.026 186.408 108.328 186.498 107.612 185.035C107.397 184.605 107.281 184.219 107.084 183.788C106.824 183.232 106.574 183.142 106.278 182.703C108.739 182.703 109.849 182.353 111.925 181.124C113.626 180.11 115.309 178.136 115.989 177.956C116.508 180.199 119.291 179.679 121.001 180.406C121.618 180.675 122.003 181.061 122.504 181.393C122.459 180.881 122.012 180.011 121.77 179.634C120.786 178.1 119.193 176.934 117.179 176.763C117.689 176.001 121.018 173.103 122.325 172.43C125.636 170.743 129.628 170.833 131.311 173.856C131.642 174.448 132.018 175.498 132.089 176.279C129.762 175.731 130.362 177.598 127.355 178.297C127.525 178.45 127.525 178.459 127.802 178.558C128.894 178.925 130.093 178.764 131.105 178.261C131.687 177.974 131.66 177.867 132.089 177.589C131.74 179.096 131.284 180.244 129.897 181.195C126.451 183.564 122.576 180.083 124.249 177.319C124.822 176.368 126.12 175.83 127.221 176.18C127.749 176.35 127.793 176.494 128.187 176.754C127.775 175.202 123.9 175.498 123.48 178.082C123.059 180.63 124.947 182.406 126.889 182.568C124.992 184.219 125.798 185.062 124.124 186.444C123.847 186.677 123.793 186.569 123.694 186.955C124.357 186.803 124.903 186.803 125.538 186.551C127.212 185.888 128.948 183.905 128.304 182.568C130.165 182.415 131.651 180.845 132.411 179.329C133.808 176.539 132.313 174.251 132.098 173.318C132.626 173.668 133.038 174.161 133.45 174.691C134.175 175.615 135.213 176.817 136.278 177.31C137.128 177.705 137.423 177.705 138.605 177.705C138.712 178.979 139.867 178.782 140.6 179.266C140.887 179.455 141.057 179.661 141.325 179.841C141.325 178.755 140.43 177.669 139.553 177.472C140.126 176.691 140.788 176.898 141.209 175.103C141.227 175.121 141.254 175.13 141.263 175.175L141.728 175.893C142.954 177.445 145.952 176.288 145.04 174.242C144.807 173.722 143.912 173.094 143.223 173.686C144.216 173.686 145.031 174.108 144.574 175.274C144.18 176.279 141.934 176.019 142.167 174.054C142.319 172.753 144.019 172.322 145.236 172.259C147.25 172.161 149.586 172.259 151.627 172.259C152.754 172.259 153.506 172.143 154.705 172.143L202.398 172.026C204.636 172.026 206.462 171.909 208.672 171.909H218.257C219.34 171.909 220.146 171.793 221.336 171.793C225.695 171.793 229.659 171.676 234 171.676L225.238 171.443C224.084 171.443 223.341 171.317 222.276 171.326H213.281C212.181 171.326 211.482 171.21 210.319 171.21C203.463 171.21 147.886 170.644 144.682 171.138C143.572 171.308 142.229 171.676 141.621 172.582C141.469 172.807 141.486 172.78 141.361 173.031C141.308 173.13 141.299 173.174 141.245 173.273L141.084 173.587C140.413 170.689 136.385 171.156 136.725 173.201C136.77 173.471 136.725 173.318 136.824 173.462C136.824 170.375 141.12 171.676 140.95 174.511C140.788 177.346 137.701 178.028 135.786 176.395C134.729 175.498 133.978 174.278 133.002 173.255C131.955 172.161 131.346 171.371 129.619 170.833C126.299 169.801 122.101 170.743 119.569 173.13C119.246 173.435 119.041 173.56 118.736 173.838C118.199 174.332 117.761 174.834 117.17 175.238C116.472 173.919 115.917 173.444 114.19 173.237C113.304 173.13 112.874 173.085 112.158 172.78C111.424 172.466 111.147 172.116 110.538 171.793C110.771 172.798 111.711 174.35 112.409 174.897C113.492 175.749 114.539 176.297 115.98 176.297L112.865 179.23C107.298 183.932 101.49 181.429 101.186 177.723C103.28 179.132 103.88 178.881 105.804 178.432C105.401 178.082 105.168 178.19 104.578 177.876C103.441 177.266 102.654 175.507 100.953 176.413C100.953 174.26 101.776 173.139 102.931 172.116C104.148 171.039 106.278 170.896 107.692 171.793C110.1 173.318 109.482 176.943 106.627 177.023C105.858 177.041 105.374 176.889 104.954 176.324L104.623 175.83C104.73 177.122 106.09 177.346 107.227 177.257C110.306 177.014 110.896 171.604 106.511 170.617C104.318 170.124 102.143 171.272 101.034 173.067C100.094 174.583 99.8881 176.171 100.318 178.019C100.479 178.728 100.694 179.006 100.837 179.634V179.652H100.846Z" fill="#755419"/>
<path d="M21.1572 166.715C20.9245 166.715 20.5755 166.697 20.0564 166.535C19.5283 166.374 19.3493 165.862 19.1882 164.741L17.5773 153.75C17.5236 153.374 17.4162 153.203 17.2551 153.203C17.094 153.203 17.0045 153.347 16.8613 153.634L12.0374 163.79L7.19559 153.759C6.96289 153.293 6.85549 153.212 6.7123 153.212C6.5691 153.212 6.46171 153.374 6.40801 153.679L4.65386 165.27C4.56436 165.871 4.42116 166.571 3.92893 166.679C3.66044 166.733 3.53514 166.733 3.40089 166.733C3.2219 166.733 3.1145 166.769 3.1145 166.858C3.1145 167.02 3.2577 167.056 3.43669 167.056C4.00053 167.056 4.8597 167.002 5.19084 167.002C5.51303 167.002 6.30956 167.056 7.05239 167.056C7.32088 167.056 7.48198 167.02 7.48198 166.858C7.48198 166.769 7.35668 166.733 7.21349 166.733C7.03449 166.733 6.7839 166.715 6.47066 166.643C6.16636 166.571 5.94262 166.41 5.94262 166.078C5.94262 165.791 5.96052 165.557 5.99632 165.243L6.91814 158.165H6.98974C7.60727 159.501 8.67229 161.735 8.83339 162.112C9.04818 162.615 10.4443 165.333 10.8739 166.149C11.1603 166.679 11.3393 167.038 11.4915 167.038C11.6436 167.038 11.7421 166.876 12.1448 166.042L16.0111 157.967H16.0827L17.1477 165.791C17.2193 166.284 17.1656 166.517 17.0582 166.553C16.9329 166.607 16.8613 166.661 16.8613 166.751C16.8613 166.858 16.9687 166.912 17.3714 166.948C18.0785 167.002 20.5307 167.056 20.9692 167.056C21.2198 167.056 21.4346 167.002 21.4346 166.858C21.4346 166.751 21.3093 166.733 21.1482 166.733L21.1572 166.715Z" fill="#755419"/>
<path d="M30.429 164.651C30.3216 164.651 30.2858 164.723 30.25 164.884C30.1426 165.504 29.9636 165.827 29.5788 166.006C29.1671 166.185 28.5138 166.203 28.1021 166.203C26.509 166.203 26.0258 165.97 25.99 164.938C25.9721 164.49 25.99 163.216 25.99 162.695V161.484C25.99 161.394 26.0078 161.323 26.0794 161.323C26.4732 161.323 28.2453 161.359 28.5227 161.394C29.1045 161.448 29.3014 161.682 29.3909 161.978C29.4267 162.175 29.4267 162.372 29.4446 162.525C29.4446 162.597 29.4804 162.65 29.5877 162.65C29.7309 162.65 29.7488 162.435 29.7488 162.31C29.7488 162.202 29.7846 161.601 29.8204 161.296C29.9099 160.533 29.9457 160.282 29.9457 160.192C29.9457 160.102 29.892 160.031 29.8204 160.031C29.7488 160.031 29.6951 160.12 29.5698 160.228C29.4267 160.39 29.194 160.425 28.827 160.461C28.469 160.497 26.4464 160.497 26.0973 160.497C26.0079 160.497 25.99 160.425 25.99 160.336V156.603C25.99 156.514 26.0257 156.46 26.0973 156.46C26.4195 156.46 28.2811 156.496 28.5496 156.532C29.3282 156.603 29.4535 156.819 29.5788 157.079C29.6683 157.258 29.6862 157.528 29.6862 157.626C29.6862 157.752 29.7041 157.824 29.8115 157.824C29.9368 157.824 29.9726 157.644 29.9905 157.572C30.0263 157.393 30.0621 156.738 30.08 156.577C30.1158 155.886 30.2053 155.706 30.2053 155.599C30.2053 155.527 30.1874 155.455 30.0979 155.455C30.0263 155.455 29.9368 155.509 29.8473 155.527C29.722 155.545 29.4714 155.599 29.194 155.617C28.8897 155.635 25.4351 155.617 24.9339 155.617C24.4864 155.617 23.493 155.581 22.6785 155.581C22.4459 155.581 22.3206 155.617 22.3206 155.724C22.3206 155.832 22.428 155.886 22.589 155.886C22.8217 155.886 23.0813 155.904 23.2066 155.94C23.7078 156.083 23.842 156.245 23.8778 156.756C23.8957 157.24 23.8957 157.662 23.8957 159.959V162.624C23.8957 164.014 23.8957 165.198 23.8241 165.844C23.7704 166.293 23.6809 166.571 23.3587 166.643C23.2155 166.679 23.0365 166.697 22.8128 166.697C22.6159 166.697 22.5622 166.787 22.5622 166.858C22.5622 166.966 22.6696 167.02 22.8665 167.02C23.1887 167.02 23.5735 167.002 23.9494 166.984C24.3253 166.984 24.6564 166.966 24.8354 166.966C25.3008 166.966 25.8826 166.984 26.6433 167.002C27.404 167.038 28.3437 167.056 29.5161 167.056C30.0979 167.056 30.2411 167.056 30.3485 166.661C30.438 166.356 30.5633 165.324 30.5633 164.992C30.5633 164.831 30.5454 164.633 30.4201 164.633L30.429 164.651Z" fill="#755419"/>
<path d="M43.1108 164.176C42.9855 164.176 42.9497 164.247 42.9139 164.481C42.8602 164.768 42.6454 165.189 42.3859 165.495C41.7683 166.185 40.9987 166.293 39.6204 166.293C37.5262 166.293 34.7607 164.588 34.7607 160.991C34.7607 159.51 35.0471 158.057 36.2016 157.061C36.9086 156.46 37.7768 156.209 39.1461 156.209C40.587 156.209 41.6251 156.585 42.1621 157.097C42.5559 157.492 42.7439 158.021 42.7618 158.505C42.7618 158.703 42.7976 158.828 42.9229 158.828C43.066 158.828 43.1198 158.667 43.1376 158.452C43.1555 158.147 43.1555 157.312 43.1913 156.819C43.2271 156.289 43.2629 156.11 43.2629 155.984C43.2629 155.895 43.2092 155.823 43.0303 155.805C42.5649 155.751 42.0547 155.643 41.473 155.554C40.766 155.464 40.1753 155.392 39.1998 155.392C36.8728 155.392 35.3872 155.993 34.2506 156.989C32.7559 158.326 32.4248 160.102 32.4248 161.134C32.4248 162.597 32.8365 164.301 34.3758 165.602C35.7989 166.795 37.6067 167.235 39.7367 167.235C40.7481 167.235 41.9384 167.145 42.5559 166.894C42.8244 166.786 42.896 166.715 42.9676 166.446C43.1287 165.925 43.3077 164.615 43.3077 164.436C43.3077 164.31 43.2361 164.167 43.1287 164.167L43.1108 164.176Z" fill="#755419"/>
<path d="M55.6137 164.176C55.4884 164.176 55.4526 164.247 55.4168 164.481C55.3631 164.768 55.1483 165.189 54.8888 165.495C54.2713 166.185 53.5016 166.293 52.1233 166.293C50.0291 166.293 47.2636 164.588 47.2636 160.991C47.2636 159.51 47.55 158.057 48.7045 157.061C49.4116 156.46 50.2797 156.209 51.649 156.209C53.0899 156.209 54.1281 156.585 54.6651 157.097C55.0588 157.492 55.2468 158.021 55.2647 158.505C55.2647 158.703 55.3005 158.828 55.4258 158.828C55.569 158.828 55.6227 158.667 55.6406 158.452C55.6585 158.147 55.6585 157.312 55.6943 156.819C55.7301 156.289 55.7659 156.11 55.7659 155.984C55.7659 155.895 55.7122 155.823 55.5332 155.805C55.0678 155.751 54.5577 155.643 53.9759 155.554C53.2689 155.464 52.6782 155.392 51.7027 155.392C49.3758 155.392 47.8901 155.993 46.7535 156.989C45.2589 158.326 44.9277 160.102 44.9277 161.134C44.9277 162.597 45.3394 164.301 46.8788 165.602C48.3018 166.795 50.1096 167.235 52.2397 167.235C53.251 167.235 54.4413 167.145 55.0588 166.894C55.3273 166.786 55.3989 166.715 55.4705 166.446C55.6316 165.925 55.8106 164.615 55.8106 164.436C55.8106 164.31 55.739 164.167 55.6316 164.167L55.6137 164.176Z" fill="#755419"/>
<path d="M68.4208 166.715C68.2418 166.715 68.0628 166.697 67.839 166.661C67.5526 166.607 67.1141 166.41 66.5055 165.046C65.5121 162.749 62.9077 156.559 62.5318 155.724C62.3707 155.383 62.2991 155.24 62.0664 155.24C61.9053 155.24 61.7801 155.419 61.6011 155.841L57.52 165.351C57.1978 166.114 56.9382 166.58 56.2223 166.688C56.0791 166.688 55.9001 166.706 55.7569 166.706C55.6316 166.706 55.5779 166.778 55.5779 166.867C55.5779 166.993 55.6674 167.029 55.8643 167.029C56.6787 167.029 57.511 166.975 57.6721 166.975C58.1733 166.975 58.8982 167.029 59.4084 167.029C59.5695 167.029 59.659 166.993 59.659 166.867C59.659 166.778 59.6232 166.706 59.4263 166.706H59.1936C58.7103 166.706 58.576 166.544 58.576 166.275C58.576 166.096 58.6476 165.728 58.8087 165.351L59.6411 163.323C59.6769 163.234 59.6948 163.216 59.7843 163.216H63.4537C63.5253 163.216 63.579 163.234 63.6148 163.323L64.823 166.365C64.8946 166.544 64.7872 166.688 64.6798 166.706C64.5187 166.724 64.4829 166.778 64.4829 166.867C64.4829 166.975 64.6619 166.975 64.9483 166.993C66.2639 167.029 67.4005 167.029 67.9464 167.029C68.5282 167.029 68.6177 166.993 68.6177 166.867C68.6177 166.76 68.5461 166.706 68.4029 166.706L68.4208 166.715ZM63.1315 162.39H60.1154C60.0617 162.39 60.0259 162.354 60.0617 162.283L61.5653 158.461C61.5832 158.407 61.6011 158.317 61.6548 158.317C61.6906 158.317 61.7085 158.407 61.7264 158.461L63.2031 162.301C63.221 162.354 63.2031 162.39 63.1315 162.39Z" fill="#755419"/>
<path d="M79.8944 166.715C79.6259 166.715 79.2411 166.679 78.9905 166.643C78.4624 166.571 78.3371 166.248 78.2835 165.773C78.2119 165.01 78.2119 163.601 78.2119 161.879V158.748C78.2119 156.047 78.2119 155.545 78.2477 154.98C78.2835 154.36 78.4266 154.055 78.901 153.966C79.1158 153.93 79.259 153.912 79.429 153.912C79.5991 153.912 79.7154 153.876 79.7154 153.732C79.7154 153.625 79.5722 153.589 79.3395 153.589C78.6683 153.589 77.6212 153.643 77.1737 153.643C76.6546 153.643 75.5448 153.589 74.8646 153.589C74.5783 153.589 74.4351 153.625 74.4351 153.732C74.4351 153.876 74.5425 153.912 74.7215 153.912C74.9362 153.912 75.1689 153.93 75.3569 153.984C75.7507 154.073 75.9207 154.378 75.9565 154.98C75.9923 155.545 75.9923 156.047 75.9923 158.748V161.879C75.9923 163.601 75.9923 165.01 75.9028 165.755C75.8491 166.266 75.7417 166.571 75.3927 166.643C75.2316 166.679 75.0168 166.715 74.7572 166.715C74.5425 166.715 74.4709 166.768 74.4709 166.858C74.4709 166.984 74.5962 167.038 74.8288 167.038C75.5359 167.038 76.6546 166.984 77.0663 166.984C77.5496 166.984 78.6593 167.038 79.8318 167.038C80.0286 167.038 80.1718 166.984 80.1718 166.858C80.1718 166.768 80.0824 166.715 79.8855 166.715H79.8944Z" fill="#755419"/>
<path d="M86.8305 160.12L86.195 159.762C84.7899 158.981 84.5483 158.443 84.5483 157.77C84.5483 156.738 85.5596 156.155 86.6783 156.155C87.6896 156.155 88.1819 156.586 88.4146 156.864C88.7547 157.258 88.8263 157.716 88.8263 157.86C88.8263 158.039 88.88 158.129 88.9874 158.129C89.1126 158.129 89.1842 157.967 89.1842 157.644C89.1842 156.451 89.2379 156.029 89.2379 155.832C89.2379 155.724 89.1663 155.67 89.0232 155.635C88.6115 155.527 87.8149 155.383 86.8036 155.383C84.6378 155.383 82.8657 156.577 82.8657 158.425C82.8657 159.762 83.4654 160.775 85.318 161.861L86.2219 162.39C87.6091 163.207 87.7612 163.871 87.7612 164.526C87.7612 165.593 86.9468 166.446 85.5954 166.446C84.6199 166.446 83.4475 166.069 83.1163 164.947C83.0268 164.678 82.9731 164.364 82.9731 164.167C82.9731 164.059 82.9552 163.916 82.812 163.916C82.6867 163.916 82.6151 164.077 82.6151 164.31C82.5972 164.561 82.5256 165.504 82.5256 166.32C82.5256 166.661 82.5793 166.733 82.8299 166.84C83.5012 167.145 84.4588 167.235 85.3627 167.235C86.195 167.235 87.2243 167.145 87.9671 166.616C89.1037 165.818 89.5243 164.911 89.5243 163.79C89.5243 162.417 88.8889 161.26 86.8305 160.129V160.12Z" fill="#755419"/>
<path d="M128.169 166.715C127.972 166.715 127.722 166.697 127.283 166.571C126.8 166.428 126.666 166.024 126.523 165.073L125.1 155.733C125.046 155.41 124.867 155.249 124.742 155.249C124.598 155.249 124.455 155.374 124.33 155.626L120.141 164.158L115.953 155.724C115.738 155.312 115.631 155.24 115.47 155.24C115.344 155.24 115.201 155.383 115.165 155.635L113.626 165.504C113.554 165.997 113.411 166.607 112.991 166.661C112.74 166.697 112.633 166.697 112.507 166.697C112.462 166.697 112.445 166.715 112.409 166.724C112.382 166.715 112.355 166.697 112.31 166.697C112.131 166.697 111.952 166.679 111.729 166.643C111.442 166.589 111.004 166.392 110.395 165.028C109.402 162.731 106.797 156.541 106.421 155.706C106.26 155.365 106.189 155.222 105.956 155.222C105.795 155.222 105.67 155.401 105.491 155.823L101.41 165.333C101.087 166.096 100.828 166.562 100.112 166.67C99.9686 166.67 99.7896 166.688 99.6554 166.688C99.6554 166.67 99.6643 166.652 99.6733 166.634C99.7986 166.185 99.906 165.073 99.906 164.893C99.906 164.714 99.8702 164.553 99.7628 164.553C99.6375 164.553 99.6017 164.642 99.5838 164.786C99.548 165.073 99.3869 165.495 99.19 165.692C98.7962 166.105 98.1966 166.123 97.3643 166.123C96.156 166.123 95.5564 166.033 95.2879 165.8C94.9478 165.513 94.9478 164.553 94.9478 162.615V159.95C94.9478 157.653 94.9478 157.232 94.9836 156.747C95.0194 156.218 95.1447 156.002 95.5654 155.931C95.7443 155.895 95.9949 155.877 96.165 155.877C96.3619 155.877 96.4514 155.823 96.4514 155.715C96.4514 155.608 96.344 155.572 96.1113 155.572C95.5117 155.572 94.2318 155.608 93.856 155.608C93.4264 155.608 92.4329 155.572 91.708 155.572C91.4753 155.572 91.3679 155.608 91.3679 155.715C91.3679 155.823 91.4574 155.877 91.6364 155.877C91.8333 155.877 92.0302 155.895 92.1466 155.931C92.6477 156.074 92.782 156.236 92.8178 156.747C92.8357 157.232 92.8357 157.653 92.8357 159.95V162.615C92.8357 164.005 92.8357 165.19 92.7641 165.835C92.7104 166.284 92.6209 166.562 92.2987 166.634C92.1555 166.67 91.9765 166.688 91.7528 166.688C91.5559 166.688 91.5022 166.778 91.5022 166.849C91.5022 166.957 91.6096 167.011 91.8065 167.011C92.1287 167.011 92.5135 166.993 92.8894 166.975C93.2653 166.975 93.5964 166.957 93.7754 166.957C94.4108 166.957 95.0731 166.975 95.8517 166.993C96.6304 167.029 97.5343 167.047 98.653 167.047C99.1453 167.047 99.369 167.02 99.4853 166.921C99.5211 166.975 99.5927 167.011 99.727 167.011C100.541 167.011 101.374 166.957 101.535 166.957C102.036 166.957 102.761 167.011 103.271 167.011C103.432 167.011 103.522 166.975 103.522 166.849C103.522 166.76 103.486 166.688 103.289 166.688H103.056C102.573 166.688 102.439 166.526 102.439 166.257C102.439 166.078 102.51 165.71 102.671 165.333L103.504 163.305C103.54 163.216 103.557 163.198 103.647 163.198H107.316C107.388 163.198 107.442 163.216 107.477 163.305L108.686 166.347C108.757 166.526 108.65 166.67 108.542 166.688C108.381 166.706 108.346 166.76 108.346 166.849C108.346 166.957 108.525 166.957 108.811 166.975C110.127 167.011 111.263 167.011 111.809 167.011C112.078 167.011 112.23 167.002 112.337 166.984C112.382 167.002 112.436 167.011 112.507 167.011C113.008 167.011 113.751 166.957 114.047 166.957C114.333 166.957 115.04 167.011 115.693 167.011C115.926 167.011 116.069 166.975 116.069 166.831C116.069 166.76 115.962 166.688 115.819 166.688C115.675 166.688 115.532 166.67 115.273 166.616C115.013 166.562 114.789 166.455 114.789 166.167C114.789 165.916 114.807 165.719 114.843 165.459L115.586 159.555H115.64C116.159 160.605 117.081 162.507 117.197 162.794C117.376 163.225 118.62 165.53 118.987 166.23C119.237 166.697 119.416 166.993 119.604 166.993C119.783 166.993 119.873 166.849 120.222 166.141L123.578 159.385H123.632L124.5 165.925C124.554 166.356 124.518 166.526 124.428 166.562C124.321 166.598 124.249 166.652 124.249 166.724C124.249 166.813 124.339 166.885 124.715 166.903C125.332 166.939 127.552 167.011 127.946 167.011C128.178 167.011 128.357 166.957 128.357 166.831C128.357 166.742 128.25 166.688 128.107 166.688L128.169 166.715ZM107.048 162.39H104.032C103.978 162.39 103.942 162.354 103.978 162.283L105.482 158.461C105.5 158.407 105.517 158.317 105.571 158.317C105.607 158.317 105.625 158.407 105.643 158.461L107.119 162.301C107.137 162.354 107.119 162.39 107.048 162.39Z" fill="#755419"/>
<path d="M134.559 166.715C134.327 166.715 133.978 166.697 133.763 166.661C133.306 166.589 133.199 166.356 133.145 165.952C133.074 165.315 133.074 164.104 133.074 162.642V159.977C133.074 157.68 133.074 157.258 133.109 156.774C133.145 156.245 133.271 156.029 133.691 155.958C133.87 155.922 133.995 155.904 134.157 155.904C134.318 155.904 134.407 155.868 134.407 155.724C134.407 155.635 134.282 155.599 134.085 155.599C133.485 155.599 132.474 155.635 132.08 155.635C131.633 155.635 130.577 155.599 129.986 155.599C129.735 155.599 129.61 155.635 129.61 155.724C129.61 155.868 129.7 155.904 129.861 155.904C130.058 155.904 130.254 155.922 130.425 155.975C130.765 156.083 130.917 156.263 130.953 156.774C130.97 157.258 130.97 157.68 130.97 159.977V162.642C130.97 164.095 130.97 165.306 130.899 165.934C130.845 166.383 130.756 166.589 130.433 166.661C130.29 166.697 130.111 166.715 129.888 166.715C129.691 166.715 129.637 166.804 129.637 166.876C129.637 166.984 129.744 167.038 129.941 167.038C130.559 167.038 131.624 166.984 131.982 166.984C132.411 166.984 133.476 167.038 134.497 167.038C134.676 167.038 134.801 166.984 134.801 166.876C134.801 166.804 134.729 166.715 134.55 166.715H134.559Z" fill="#755419"/>
<path d="M147.008 164.176C146.883 164.176 146.847 164.247 146.812 164.481C146.758 164.768 146.543 165.189 146.284 165.495C145.666 166.185 144.896 166.293 143.518 166.293C141.424 166.293 138.658 164.588 138.658 160.991C138.658 159.51 138.945 158.057 140.099 157.061C140.806 156.46 141.674 156.209 143.044 156.209C144.485 156.209 145.523 156.585 146.06 157.097C146.454 157.492 146.642 158.021 146.659 158.505C146.659 158.703 146.695 158.828 146.821 158.828C146.964 158.828 147.017 158.667 147.035 158.452C147.053 158.147 147.053 157.312 147.089 156.819C147.125 156.289 147.161 156.11 147.161 155.984C147.161 155.895 147.107 155.823 146.928 155.805C146.463 155.751 145.952 155.643 145.371 155.554C144.664 155.464 144.073 155.392 143.097 155.392C140.771 155.392 139.285 155.993 138.148 156.989C136.654 158.326 136.323 160.102 136.323 161.134C136.323 162.597 136.734 164.301 138.274 165.602C139.697 166.795 141.504 167.235 143.634 167.235C144.646 167.235 145.836 167.145 146.454 166.894C146.722 166.786 146.794 166.715 146.865 166.446C147.026 165.925 147.205 164.615 147.205 164.436C147.205 164.31 147.134 164.167 147.026 164.167L147.008 164.176Z" fill="#755419"/>
<path d="M163.664 164.265C163.521 164.265 163.485 164.373 163.467 164.535C163.431 164.875 163.216 165.369 163.011 165.602C162.563 166.087 161.874 166.096 160.934 166.096C159.547 166.096 159.091 165.97 158.786 165.701C158.41 165.378 158.41 164.158 158.41 161.879V158.748C158.41 156.047 158.41 155.545 158.446 154.98C158.482 154.36 158.625 154.055 159.1 153.966C159.314 153.93 159.601 153.912 159.789 153.912C160.004 153.912 160.111 153.876 160.111 153.75C160.111 153.625 159.986 153.589 159.735 153.589C159.046 153.589 157.748 153.643 157.319 153.643C156.835 153.643 155.726 153.589 154.884 153.589C154.616 153.589 154.49 153.625 154.49 153.75C154.49 153.876 154.598 153.912 154.795 153.912C155.027 153.912 155.242 153.93 155.377 153.966C155.958 154.091 156.101 154.378 156.137 154.98C156.173 155.545 156.173 156.047 156.173 158.748V161.879C156.173 163.512 156.173 164.92 156.084 165.665C156.012 166.185 155.922 166.571 155.573 166.643C155.412 166.679 155.198 166.715 154.938 166.715C154.723 166.715 154.652 166.768 154.652 166.858C154.652 166.984 154.777 167.038 155.01 167.038C155.368 167.038 155.824 167.002 156.236 167.002C156.665 166.984 157.05 166.984 157.247 166.984C157.972 166.984 158.616 167.002 159.413 167.038C160.209 167.056 161.131 167.091 162.411 167.091C163.333 167.091 163.422 167.002 163.53 166.607C163.673 166.087 163.798 164.759 163.798 164.561C163.798 164.346 163.78 164.256 163.655 164.256L163.664 164.265Z" fill="#755419"/>
<path d="M170.153 166.715C169.92 166.715 169.571 166.697 169.356 166.661C168.9 166.589 168.792 166.356 168.739 165.952C168.667 165.315 168.667 164.104 168.667 162.642V159.977C168.667 157.68 168.667 157.258 168.703 156.774C168.739 156.245 168.864 156.029 169.284 155.958C169.463 155.922 169.589 155.904 169.75 155.904C169.911 155.904 170 155.868 170 155.724C170 155.635 169.875 155.599 169.678 155.599C169.079 155.599 168.067 155.635 167.674 155.635C167.226 155.635 166.17 155.599 165.579 155.599C165.329 155.599 165.203 155.635 165.203 155.724C165.203 155.868 165.293 155.904 165.454 155.904C165.651 155.904 165.848 155.922 166.018 155.975C166.358 156.083 166.51 156.263 166.546 156.774C166.564 157.258 166.564 157.68 166.564 159.977V162.642C166.564 164.095 166.564 165.306 166.492 165.934C166.438 166.383 166.349 166.589 166.027 166.661C165.884 166.697 165.705 166.715 165.481 166.715C165.284 166.715 165.23 166.804 165.23 166.876C165.23 166.984 165.338 167.038 165.535 167.038C166.152 167.038 167.217 166.984 167.575 166.984C168.005 166.984 169.07 167.038 170.09 167.038C170.269 167.038 170.394 166.984 170.394 166.876C170.394 166.804 170.323 166.715 170.144 166.715H170.153Z" fill="#755419"/>
<path d="M178.574 160.506C179.46 159.941 180.328 159.026 180.328 157.86C180.328 157.061 179.836 155.599 177.008 155.599C176.48 155.599 175.451 155.635 174.663 155.635C174.359 155.635 173.366 155.599 172.551 155.599C172.318 155.599 172.193 155.635 172.193 155.742C172.193 155.85 172.301 155.904 172.462 155.904C172.694 155.904 172.954 155.922 173.079 155.958C173.571 156.101 173.715 156.263 173.75 156.774C173.768 157.258 173.768 157.68 173.768 159.977V162.642C173.768 164.032 173.768 165.216 173.697 165.862C173.643 166.311 173.553 166.589 173.231 166.661C173.088 166.697 172.909 166.715 172.685 166.715C172.488 166.715 172.435 166.804 172.435 166.876C172.435 166.984 172.542 167.038 172.739 167.038C173.061 167.038 173.446 167.02 173.822 167.002C174.198 167.002 174.529 166.984 174.708 166.984C174.959 166.984 175.505 167.002 176.042 167.02C176.57 167.056 177.107 167.074 177.286 167.074C180.158 167.074 181.438 165.405 181.438 163.781C181.438 162.005 179.845 160.919 178.565 160.506H178.574ZM175.809 156.577C175.809 156.415 175.845 156.343 175.952 156.325C176.113 156.289 176.417 156.289 176.623 156.289C177.975 156.289 178.574 157.555 178.574 158.568C178.574 159.295 178.27 159.851 177.867 160.165C177.599 160.381 177.16 160.434 176.641 160.434C176.283 160.434 176.059 160.417 175.916 160.381C175.863 160.363 175.809 160.345 175.809 160.219V156.577ZM177.473 166.338C177.115 166.338 176.766 166.32 176.355 166.158C175.854 165.961 175.809 165.665 175.809 164.66V161.224C175.809 161.134 175.845 161.116 175.898 161.116H176.57C177.169 161.116 177.599 161.278 177.921 161.511C179.093 162.31 179.398 163.503 179.398 164.194C179.398 165.862 178.315 166.329 177.482 166.329L177.473 166.338Z" fill="#755419"/>
<path d="M205.889 166.715C205.71 166.715 205.531 166.697 205.307 166.661C205.021 166.607 204.582 166.41 203.974 165.046C202.98 162.749 200.376 156.559 200 155.724C199.839 155.383 199.767 155.24 199.534 155.24C199.373 155.24 199.248 155.419 199.069 155.841L194.988 165.351C194.764 165.898 194.549 166.284 194.2 166.499C193.914 166.374 193.547 166.141 193.082 165.674C192.142 164.732 191.041 163.359 189.654 161.655C191.184 160.425 191.82 159.43 191.82 158.308C191.82 157.294 191.166 156.532 190.719 156.227C189.887 155.67 188.75 155.59 187.757 155.59C187.273 155.59 185.859 155.626 185.322 155.626C185 155.626 184.007 155.59 183.192 155.59C182.96 155.59 182.834 155.626 182.834 155.733C182.834 155.841 182.942 155.895 183.103 155.895C183.335 155.895 183.595 155.913 183.72 155.949C184.212 156.092 184.356 156.254 184.391 156.765C184.409 157.249 184.409 157.671 184.409 159.968V162.633C184.409 164.023 184.409 165.207 184.338 165.853C184.284 166.302 184.195 166.58 183.872 166.652C183.729 166.688 183.55 166.706 183.326 166.706C183.13 166.706 183.076 166.795 183.076 166.867C183.076 166.975 183.183 167.029 183.38 167.029C183.998 167.029 184.991 166.975 185.295 166.975C185.528 166.975 186.817 167.029 187.721 167.029C187.918 167.029 188.043 166.975 188.043 166.867C188.043 166.795 187.971 166.706 187.846 166.706C187.649 166.706 187.318 166.688 187.085 166.652C186.602 166.58 186.53 166.293 186.486 165.853C186.414 165.216 186.396 164.041 186.396 162.633V162.417C186.396 162.327 186.45 162.292 186.522 162.292L187.927 162.327C188.034 162.327 188.124 162.345 188.213 162.435C188.41 162.668 189.063 163.682 189.69 164.499C190.558 165.674 191.14 166.383 191.82 166.724C192.187 166.912 192.589 167.002 193.296 167.02C193.314 167.02 193.323 167.02 193.341 167.02C193.386 167.02 193.44 167.02 193.484 167.02C193.493 167.02 193.511 167.02 193.52 167.02H195.015C195.122 167.02 195.203 167.002 195.248 166.966C195.74 166.966 196.402 167.02 196.894 167.02C197.055 167.02 197.145 166.984 197.145 166.858C197.145 166.769 197.109 166.697 196.912 166.697H196.679C196.196 166.697 196.062 166.535 196.062 166.266C196.062 166.087 196.134 165.719 196.295 165.342L197.127 163.314C197.163 163.225 197.181 163.207 197.27 163.207H200.94C201.011 163.207 201.065 163.225 201.101 163.314L202.309 166.356C202.38 166.535 202.273 166.679 202.166 166.697C202.005 166.715 201.969 166.769 201.969 166.858C201.969 166.966 202.148 166.966 202.425 166.984C203.741 167.02 204.877 167.02 205.423 167.02C206.005 167.02 206.095 166.984 206.095 166.858C206.095 166.751 206.023 166.697 205.88 166.697L205.889 166.715ZM188.848 161.305C188.58 161.502 188.365 161.556 187.748 161.556C187.354 161.556 186.897 161.52 186.557 161.412C186.45 161.359 186.414 161.305 186.414 161.143V156.648C186.414 156.523 186.45 156.469 186.557 156.433C186.718 156.397 187.085 156.379 187.479 156.379C188.401 156.379 189.86 156.926 189.86 159.062C189.86 160.309 189.332 160.964 188.848 161.305ZM200.608 162.39H197.592C197.539 162.39 197.503 162.354 197.539 162.283L199.051 158.461C199.069 158.407 199.087 158.317 199.141 158.317C199.176 158.317 199.194 158.407 199.212 158.461L200.689 162.301C200.707 162.354 200.689 162.39 200.617 162.39H200.608Z" fill="#755419"/>
<path d="M218.508 166.715C218.383 166.715 218.293 166.715 218.132 166.679C217.881 166.625 217.336 166.553 216.467 165.683C215.528 164.741 214.427 163.368 213.04 161.664C214.57 160.434 215.206 159.439 215.206 158.317C215.206 157.303 214.552 156.541 214.105 156.236C213.272 155.679 212.136 155.599 211.142 155.599C210.659 155.599 209.245 155.635 208.708 155.635C208.386 155.635 207.392 155.599 206.578 155.599C206.345 155.599 206.22 155.635 206.22 155.742C206.22 155.85 206.327 155.904 206.488 155.904C206.721 155.904 206.981 155.922 207.106 155.958C207.598 156.101 207.741 156.263 207.777 156.774C207.795 157.258 207.795 157.68 207.795 159.977V162.642C207.795 164.032 207.795 165.216 207.724 165.862C207.67 166.311 207.58 166.589 207.258 166.661C207.115 166.697 206.936 166.715 206.712 166.715C206.515 166.715 206.462 166.804 206.462 166.876C206.462 166.984 206.569 167.038 206.766 167.038C207.383 167.038 208.377 166.984 208.681 166.984C208.914 166.984 210.203 167.038 211.107 167.038C211.303 167.038 211.429 166.984 211.429 166.876C211.429 166.804 211.357 166.715 211.232 166.715C211.035 166.715 210.704 166.697 210.471 166.661C209.988 166.589 209.916 166.302 209.871 165.862C209.8 165.225 209.782 164.05 209.782 162.642V162.426C209.782 162.336 209.836 162.301 209.907 162.301L211.312 162.336C211.42 162.336 211.509 162.354 211.599 162.444C211.796 162.677 212.449 163.691 213.075 164.508C213.944 165.683 214.525 166.392 215.206 166.733C215.617 166.948 216.038 167.038 216.906 167.038H218.401C218.597 167.038 218.705 167.002 218.705 166.876C218.705 166.804 218.633 166.715 218.508 166.715ZM212.225 161.305C211.957 161.502 211.742 161.556 211.124 161.556C210.731 161.556 210.274 161.52 209.934 161.412C209.827 161.359 209.791 161.305 209.791 161.143V156.648C209.791 156.523 209.827 156.469 209.934 156.433C210.095 156.397 210.462 156.379 210.856 156.379C211.778 156.379 213.237 156.926 213.237 159.062C213.237 160.309 212.709 160.964 212.225 161.305Z" fill="#755419"/>
<path d="M228.138 155.599C227.834 155.599 226.804 155.634 226.473 155.634C226.017 155.634 225.462 155.599 224.952 155.599C224.773 155.599 224.683 155.634 224.683 155.742C224.683 155.868 224.827 155.886 224.97 155.922C225.238 155.975 225.31 156.119 225.31 156.262C225.31 156.46 225.238 156.729 225.077 157.061C224.844 157.528 222.947 160.757 222.75 161.116C222.482 160.686 220.441 157.151 220.164 156.684C220.038 156.469 219.967 156.289 219.967 156.164C219.967 156.038 220.056 155.966 220.182 155.931C220.432 155.859 220.54 155.859 220.54 155.733C220.54 155.625 220.45 155.59 220.307 155.59C219.6 155.59 218.866 155.625 218.535 155.625C218.025 155.625 216.852 155.59 216.584 155.59C216.387 155.59 216.28 155.625 216.28 155.733C216.28 155.841 216.387 155.895 216.512 155.895C216.709 155.895 216.978 155.984 217.166 156.092C217.47 156.254 217.783 156.612 218.177 157.16C218.732 157.958 220.853 161.287 220.96 161.52C221.175 161.969 221.318 162.283 221.318 163.099V164.346C221.318 164.597 221.318 165.216 221.265 165.853C221.229 166.302 221.103 166.58 220.781 166.652C220.638 166.688 220.441 166.706 220.235 166.706C220.056 166.706 219.985 166.795 219.985 166.867C219.985 166.993 220.11 167.029 220.325 167.029C220.907 167.029 221.954 166.975 222.347 166.975C222.777 166.975 223.824 167.029 224.8 167.029C225.014 167.029 225.14 166.975 225.14 166.867C225.14 166.795 225.05 166.706 224.871 166.706C224.656 166.706 224.325 166.688 224.093 166.652C223.636 166.58 223.493 166.293 223.457 165.853C223.421 165.216 223.421 164.588 223.421 164.346V163.135C223.421 162.641 223.386 162.175 223.618 161.628C223.905 160.991 226.133 157.393 226.652 156.792C226.992 156.379 227.136 156.245 227.467 156.083C227.699 155.975 227.977 155.904 228.138 155.904C228.317 155.904 228.442 155.832 228.442 155.724C228.442 155.634 228.335 155.599 228.156 155.599H228.138Z" fill="#755419"/>
</svg>
